<?xml version="1.0" encoding="UTF-8"?> <svg xmlns="http://www.w3.org/2000/svg" width="64" height="23" viewBox="0 0 64 23" fill="none"><path d="M5.444 8H4.562C3.848 8 3.38367 7.87867 3.169 7.636C2.95433 7.39333 2.91933 6.943 3.064 6.285L3.372 4.843H2.728L2.98 3.66H3.624L3.869 2.477H5.409L5.164 3.66H6.368L6.116 4.843H4.912L4.492 6.824H5.696L5.444 8ZM10.6281 6.208C10.4834 6.894 10.2361 7.37 9.8861 7.636C9.54077 7.902 9.00877 8.035 8.2901 8.035H7.6181C6.89943 8.035 6.42343 7.902 6.1901 7.636C5.95677 7.37 5.91477 6.894 6.0641 6.208L6.2251 5.445C6.36977 4.759 6.61477 4.28533 6.9601 4.024C7.30543 3.758 7.83744 3.625 8.5561 3.625H9.2281C9.94677 3.625 10.4228 3.758 10.6561 4.024C10.8941 4.28533 10.9384 4.759 10.7891 5.445L10.6281 6.208ZM8.9411 6.824L9.3611 4.843H7.8981L7.4781 6.824H8.9411ZM15.7824 6.208C15.6377 6.894 15.3904 7.37 15.0404 7.636C14.6951 7.902 14.1631 8.035 13.4444 8.035H12.7724C12.0537 8.035 11.5777 7.902 11.3444 7.636C11.1111 7.37 11.0691 6.894 11.2184 6.208L11.3794 5.445C11.5241 4.759 11.7691 4.28533 12.1144 4.024C12.4597 3.758 12.9917 3.625 13.7104 3.625H14.3824C15.1011 3.625 15.5771 3.758 15.8104 4.024C16.0484 4.28533 16.0927 4.759 15.9434 5.445L15.7824 6.208ZM14.0954 6.824L14.5154 4.843H13.0524L12.6324 6.824H14.0954ZM20.8317 8H19.0187L17.9547 6.362L17.6117 8H16.0647L17.2757 2.33H18.8227L18.1997 5.228L19.8237 3.66H21.6367L19.4317 5.725L20.8317 8ZM26.9335 5.753H24.2175L24.5045 4.409H27.2205L26.9335 5.753ZM32.8151 8H31.9331C31.2191 8 30.7548 7.87867 30.5401 7.636C30.3254 7.39333 30.2904 6.943 30.4351 6.285L30.7431 4.843H30.0991L30.3511 3.66H30.9951L31.2401 2.477H32.7801L32.5351 3.66H33.7391L33.4871 4.843H32.2831L31.8631 6.824H33.0671L32.8151 8ZM37.9992 6.208C37.8545 6.894 37.6072 7.37 37.2572 7.636C36.9119 7.902 36.3799 8.035 35.6612 8.035H34.9892C34.2705 8.035 33.7945 7.902 33.5612 7.636C33.3279 7.37 33.2859 6.894 33.4352 6.208L33.5962 5.445C33.7409 4.759 33.9859 4.28533 34.3312 4.024C34.6765 3.758 35.2085 3.625 35.9272 3.625H36.5992C37.3179 3.625 37.7939 3.758 38.0272 4.024C38.2652 4.28533 38.3095 4.759 38.1602 5.445L37.9992 6.208ZM36.3122 6.824L36.7322 4.843H35.2692L34.8492 6.824H36.3122ZM43.1535 6.208C43.0088 6.894 42.7615 7.37 42.4115 7.636C42.0662 7.902 41.5342 8.035 40.8155 8.035H40.1435C39.4248 8.035 38.9488 7.902 38.7155 7.636C38.4822 7.37 38.4402 6.894 38.5895 6.208L38.7505 5.445C38.8952 4.759 39.1402 4.28533 39.4855 4.024C39.8308 3.758 40.3628 3.625 41.0815 3.625H41.7535C42.4722 3.625 42.9482 3.758 43.1815 4.024C43.4195 4.28533 43.4638 4.759 43.3145 5.445L43.1535 6.208ZM41.4665 6.824L41.8865 4.843H40.4235L40.0035 6.824H41.4665ZM48.2028 8H46.3898L45.3258 6.362L44.9828 8H43.4358L44.6468 2.33H46.1938L45.5708 5.228L47.1948 3.66H49.0078L46.8028 5.725L48.2028 8Z" fill="#05C504"></path><path d="M10.68 13.68H7.632L6.072 21H3.192L4.752 13.68H1.704L2.22 11.28H11.184L10.68 13.68ZM15.3437 17.952H12.7037L13.2077 15.588H11.2157L10.0637 21H7.41169L8.99569 13.56H13.6877C14.5837 13.56 15.1957 13.772 15.5237 14.196C15.8597 14.612 15.9277 15.268 15.7277 16.164L15.3437 17.952ZM22.6184 21H17.3864C16.6584 21 16.1344 20.812 15.8144 20.436C15.5024 20.052 15.4264 19.488 15.5864 18.744L15.6344 18.564C15.9384 17.068 16.8544 16.32 18.3824 16.32H20.9624L21.1184 15.588H16.8824L17.3264 13.56H21.5984C22.5024 13.56 23.1184 13.772 23.4464 14.196C23.7744 14.612 23.8384 15.268 23.6384 16.164L22.6184 21ZM20.3624 19.164L20.5784 18.156H18.2624L18.0584 19.164H20.3624ZM31.5325 21H28.8925L30.0445 15.588H27.6805L26.5285 21H23.8765L25.4605 13.56H30.5125C31.4165 13.56 32.0325 13.772 32.3605 14.196C32.6885 14.612 32.7565 15.268 32.5645 16.164L31.5325 21ZM40.1025 18.624C39.7745 20.208 38.7465 21 37.0185 21H32.8185L33.2505 18.984H37.4385L37.5825 18.3H35.7465C34.0345 18.3 33.3425 17.508 33.6705 15.924C33.8545 15.092 34.1985 14.492 34.7025 14.124C35.2065 13.748 35.8905 13.56 36.7545 13.56H40.7145L40.2825 15.588H36.2985L36.1545 16.26H38.0265C38.8905 16.26 39.4985 16.448 39.8505 16.824C40.2025 17.2 40.2865 17.8 40.1025 18.624ZM46.5975 16.296H44.7735L43.7775 21H41.1255L42.1335 16.296H40.9815L41.4135 14.28H42.5655L42.7095 13.62C43.0295 12.06 43.9255 11.28 45.3975 11.28H47.6775L47.2455 13.296H45.4215L45.2055 14.268H47.0295L46.5975 16.296ZM54.0733 18.204H49.1533L48.9973 18.984H53.8093L53.3773 21H49.3813C48.1493 21 47.3333 20.772 46.9333 20.316C46.5333 19.86 46.4613 19.044 46.7173 17.868L46.9933 16.56C47.2493 15.384 47.6693 14.58 48.2533 14.148C48.8373 13.716 49.7453 13.5 50.9773 13.5H51.7453C52.9773 13.5 53.7933 13.728 54.1933 14.184C54.5933 14.632 54.6693 15.444 54.4213 16.62L54.0733 18.204ZM51.9373 16.428L52.1413 15.468H49.7413L49.5373 16.428H51.9373ZM62.5468 17.952H59.9068L60.4108 15.588H58.4188L57.2668 21H54.6148L56.1988 13.56H60.8908C61.7868 13.56 62.3988 13.772 62.7268 14.196C63.0628 14.612 63.1308 15.268 62.9308 16.164L62.5468 17.952Z" fill="#05C504"></path></svg> 