<?xml version="1.0" encoding="UTF-8"?> <svg xmlns="http://www.w3.org/2000/svg" width="33" height="31" viewBox="0 0 33 31" fill="none"><path d="M1.99219 13.5C0.887618 13.5 -0.0078125 14.3954 -0.0078125 15.5C-0.0078125 16.6046 0.887618 17.5 1.99219 17.5V13.5ZM32.4236 16.9142C33.2047 16.1332 33.2047 14.8668 32.4236 14.0858L19.6957 1.35786C18.9147 0.576816 17.6483 0.576816 16.8673 1.35786C16.0862 2.13891 16.0862 3.40524 16.8673 4.18629L28.181 15.5L16.8673 26.8137C16.0862 27.5948 16.0862 28.8611 16.8673 29.6421C17.6483 30.4232 18.9147 30.4232 19.6957 29.6421L32.4236 16.9142ZM1.99219 17.5H31.0094V13.5H1.99219V17.5Z" fill="#0E3E76"></path></svg> 