<?xml version="1.0" encoding="UTF-8"?> <svg xmlns="http://www.w3.org/2000/svg" width="19" height="22" viewBox="0 0 19 22" fill="none"><path d="M6 12V3.5C6 3.10218 6.15804 2.72064 6.43934 2.43934C6.72064 2.15804 7.10218 2 7.5 2C7.89782 2 8.27936 2.15804 8.56066 2.43934C8.84196 2.72064 9 3.10218 9 3.5V11M9 10.5V8.5C9 8.10218 9.15804 7.72064 9.43934 7.43934C9.72064 7.15804 10.1022 7 10.5 7C10.8978 7 11.2794 7.15804 11.5607 7.43934C11.842 7.72064 12 8.10218 12 8.5V11M12 9.5C12 9.10218 12.158 8.72064 12.4393 8.43934C12.7206 8.15804 13.1022 8 13.5 8C13.8978 8 14.2794 8.15804 14.5607 8.43934C14.842 8.72064 15 9.10218 15 9.5V11" stroke="#0E3E76" stroke-width="2" stroke-linecap="round" stroke-linejoin="round"></path><path d="M15 10.5C15 10.1022 15.158 9.72064 15.4393 9.43934C15.7206 9.15804 16.1022 9 16.5 9C16.8978 9 17.2794 9.15804 17.5607 9.43934C17.842 9.72064 18 10.1022 18 10.5V15C18 16.5913 17.3679 18.1174 16.2426 19.2426C15.1174 20.3679 13.5913 21 12 21H10H10.208C9.21434 21.0002 8.23619 20.7535 7.36138 20.2823C6.48658 19.811 5.74252 19.1299 5.196 18.3L5 18C4.688 17.5213 3.59267 15.612 1.714 12.272C1.52245 11.9315 1.47128 11.5298 1.57138 11.1522C1.67148 10.7745 1.91495 10.4509 2.25 10.25C2.60703 10.0364 3.02511 9.94793 3.43806 9.99864C3.85102 10.0494 4.23527 10.2363 4.53 10.53L6 12M3 2L2 1M2 6H1M12 2L13 1M13 5H14" stroke="#0E3E76" stroke-width="2" stroke-linecap="round" stroke-linejoin="round"></path></svg> 